<svg xmlns="http://www.w3.org/2000/svg" xmlns:xlink="http://www.w3.org/1999/xlink" width="500" zoomAndPan="magnify" viewBox="0 0 375 374.999991" height="500" preserveAspectRatio="xMidYMid meet" version="1.0"><defs><g/><clipPath id="6890e7ff61"><path d="M 86.820312 119.796875 L 217.519531 119.796875 L 217.519531 250.492188 L 86.820312 250.492188 Z M 86.820312 119.796875 " clip-rule="nonzero"/></clipPath><clipPath id="8753aca4da"><path d="M 152.171875 119.796875 C 116.078125 119.796875 86.820312 149.054688 86.820312 185.144531 C 86.820312 221.234375 116.078125 250.492188 152.171875 250.492188 C 188.261719 250.492188 217.519531 221.234375 217.519531 185.144531 C 217.519531 149.054688 188.261719 119.796875 152.171875 119.796875 Z M 152.171875 119.796875 " clip-rule="nonzero"/></clipPath><clipPath id="a9e9b84e60"><path d="M 0.820312 0.796875 L 131.519531 0.796875 L 131.519531 131.492188 L 0.820312 131.492188 Z M 0.820312 0.796875 " clip-rule="nonzero"/></clipPath><clipPath id="e72dc70dc2"><path d="M 66.171875 0.796875 C 30.078125 0.796875 0.820312 30.054688 0.820312 66.144531 C 0.820312 102.234375 30.078125 131.492188 66.171875 131.492188 C 102.261719 131.492188 131.519531 102.234375 131.519531 66.144531 C 131.519531 30.054688 102.261719 0.796875 66.171875 0.796875 Z M 66.171875 0.796875 " clip-rule="nonzero"/></clipPath><clipPath id="9e08c7a3cd"><rect x="0" width="132" y="0" height="132"/></clipPath><clipPath id="43139d021e"><path d="M 64 191 L 130 191 L 130 251 L 64 251 Z M 64 191 " clip-rule="nonzero"/></clipPath><clipPath id="89556ae37f"><path d="M 129.246094 191.699219 L 135.609375 247.589844 L 66.304688 255.476562 L 59.945312 199.585938 Z M 129.246094 191.699219 " clip-rule="nonzero"/></clipPath><clipPath id="0d7c27321f"><path d="M 129.246094 191.699219 L 135.609375 247.589844 L 66.304688 255.476562 L 59.945312 199.585938 Z M 129.246094 191.699219 " clip-rule="nonzero"/></clipPath><clipPath id="cec94b26b3"><path d="M 129.242188 191.699219 L 135.574219 247.335938 L 66.507812 255.199219 L 60.171875 199.5625 Z M 129.242188 191.699219 " clip-rule="nonzero"/></clipPath></defs><g clip-path="url(#6890e7ff61)"><g clip-path="url(#8753aca4da)"><g transform="matrix(1, 0, 0, 1, 86, 119)"><g clip-path="url(#9e08c7a3cd)"><g clip-path="url(#a9e9b84e60)"><g clip-path="url(#e72dc70dc2)"><path fill="#746a94" d="M 0.820312 0.796875 L 131.519531 0.796875 L 131.519531 131.492188 L 0.820312 131.492188 Z M 0.820312 0.796875 " fill-opacity="1" fill-rule="nonzero"/></g></g></g></g></g></g><g fill="#ffffff" fill-opacity="1"><g transform="translate(135.58939, 185.401041)"><g><path d="M 31.28125 -42.171875 L 31.28125 -14.234375 C 31.28125 -9.492188 29.992188 -5.863281 27.421875 -3.34375 C 24.847656 -0.832031 21.3125 0.421875 16.8125 0.421875 C 12.019531 0.421875 8.195312 -0.910156 5.34375 -3.578125 C 2.5 -6.253906 1.078125 -10.101562 1.078125 -15.125 L 12.6875 -15.125 C 12.71875 -11.820312 13.929688 -10.171875 16.328125 -10.171875 C 18.484375 -10.171875 19.5625 -11.523438 19.5625 -14.234375 L 19.5625 -42.171875 Z M 31.28125 -42.171875 "/></g></g></g><g fill="#ffffff" fill-opacity="1"><g transform="translate(167.169806, 185.401041)"><g><path d="M 1.4375 -16.8125 C 1.4375 -20.28125 2.0625 -23.304688 3.3125 -25.890625 C 4.570312 -28.484375 6.285156 -30.476562 8.453125 -31.875 C 10.628906 -33.269531 13.054688 -33.96875 15.734375 -33.96875 C 18.046875 -33.96875 20.035156 -33.507812 21.703125 -32.59375 C 23.378906 -31.675781 24.675781 -30.441406 25.59375 -28.890625 L 25.59375 -33.5625 L 37.328125 -33.5625 L 37.328125 0 L 25.59375 0 L 25.59375 -4.671875 C 24.675781 -3.109375 23.367188 -1.867188 21.671875 -0.953125 C 19.984375 -0.0351562 18.003906 0.421875 15.734375 0.421875 C 13.054688 0.421875 10.628906 -0.273438 8.453125 -1.671875 C 6.285156 -3.066406 4.570312 -5.070312 3.3125 -7.6875 C 2.0625 -10.300781 1.4375 -13.34375 1.4375 -16.8125 Z M 25.59375 -16.8125 C 25.59375 -18.957031 25.003906 -20.648438 23.828125 -21.890625 C 22.660156 -23.128906 21.21875 -23.75 19.5 -23.75 C 17.738281 -23.75 16.28125 -23.140625 15.125 -21.921875 C 13.96875 -20.703125 13.390625 -19 13.390625 -16.8125 C 13.390625 -14.65625 13.96875 -12.945312 15.125 -11.6875 C 16.28125 -10.4375 17.738281 -9.8125 19.5 -9.8125 C 21.21875 -9.8125 22.660156 -10.425781 23.828125 -11.65625 C 25.003906 -12.894531 25.59375 -14.613281 25.59375 -16.8125 Z M 25.59375 -16.8125 "/></g></g></g><g fill="#ffffff" fill-opacity="1"><g transform="translate(204.492225, 185.401041)"><g><path d="M 1.4375 -16.8125 C 1.4375 -20.28125 2.0625 -23.304688 3.3125 -25.890625 C 4.570312 -28.484375 6.296875 -30.476562 8.484375 -31.875 C 10.679688 -33.269531 13.117188 -33.96875 15.796875 -33.96875 C 17.941406 -33.96875 19.863281 -33.519531 21.5625 -32.625 C 23.257812 -31.726562 24.585938 -30.503906 25.546875 -28.953125 L 25.546875 -44.265625 L 37.328125 -44.265625 L 37.328125 0 L 25.546875 0 L 25.546875 -4.671875 C 24.628906 -3.109375 23.332031 -1.867188 21.65625 -0.953125 C 19.976562 -0.0351562 18.003906 0.421875 15.734375 0.421875 C 13.054688 0.421875 10.628906 -0.273438 8.453125 -1.671875 C 6.285156 -3.066406 4.570312 -5.070312 3.3125 -7.6875 C 2.0625 -10.300781 1.4375 -13.34375 1.4375 -16.8125 Z M 25.59375 -16.8125 C 25.59375 -18.957031 25.003906 -20.648438 23.828125 -21.890625 C 22.660156 -23.128906 21.21875 -23.75 19.5 -23.75 C 17.738281 -23.75 16.28125 -23.140625 15.125 -21.921875 C 13.96875 -20.703125 13.390625 -19 13.390625 -16.8125 C 13.390625 -14.65625 13.96875 -12.945312 15.125 -11.6875 C 16.28125 -10.4375 17.738281 -9.8125 19.5 -9.8125 C 21.21875 -9.8125 22.660156 -10.425781 23.828125 -11.65625 C 25.003906 -12.894531 25.59375 -14.613281 25.59375 -16.8125 Z M 25.59375 -16.8125 "/></g></g></g><g fill="#ffffff" fill-opacity="1"><g transform="translate(241.814645, 185.401041)"><g><path d="M 35.40625 -17.171875 C 35.40625 -16.253906 35.347656 -15.335938 35.234375 -14.421875 L 13.046875 -14.421875 C 13.160156 -12.578125 13.664062 -11.207031 14.5625 -10.3125 C 15.457031 -9.414062 16.601562 -8.96875 18 -8.96875 C 19.957031 -8.96875 21.351562 -9.847656 22.1875 -11.609375 L 34.6875 -11.609375 C 34.164062 -9.296875 33.15625 -7.226562 31.65625 -5.40625 C 30.164062 -3.59375 28.285156 -2.164062 26.015625 -1.125 C 23.742188 -0.09375 21.234375 0.421875 18.484375 0.421875 C 15.171875 0.421875 12.226562 -0.273438 9.65625 -1.671875 C 7.082031 -3.066406 5.066406 -5.0625 3.609375 -7.65625 C 2.160156 -10.25 1.4375 -13.300781 1.4375 -16.8125 C 1.4375 -20.320312 2.148438 -23.359375 3.578125 -25.921875 C 5.015625 -28.492188 7.019531 -30.476562 9.59375 -31.875 C 12.164062 -33.269531 15.128906 -33.96875 18.484375 -33.96875 C 21.796875 -33.96875 24.726562 -33.289062 27.28125 -31.9375 C 29.832031 -30.582031 31.820312 -28.640625 33.25 -26.109375 C 34.6875 -23.578125 35.40625 -20.597656 35.40625 -17.171875 Z M 23.453125 -20.09375 C 23.453125 -21.53125 22.972656 -22.65625 22.015625 -23.46875 C 21.054688 -24.289062 19.859375 -24.703125 18.421875 -24.703125 C 16.984375 -24.703125 15.804688 -24.3125 14.890625 -23.53125 C 13.972656 -22.757812 13.375 -21.613281 13.09375 -20.09375 Z M 23.453125 -20.09375 "/></g></g></g><g fill="#ffffff" fill-opacity="1"><g transform="translate(275.309061, 185.401041)"><g><path d="M 15.078125 -27.640625 C 16.390625 -29.546875 17.984375 -31.054688 19.859375 -32.171875 C 21.734375 -33.296875 23.75 -33.859375 25.90625 -33.859375 L 25.90625 -21.359375 L 22.609375 -21.359375 C 20.054688 -21.359375 18.160156 -20.859375 16.921875 -19.859375 C 15.691406 -18.859375 15.078125 -17.125 15.078125 -14.65625 L 15.078125 0 L 3.34375 0 L 3.34375 -33.5625 L 15.078125 -33.5625 Z M 15.078125 -27.640625 "/></g></g></g><g fill="#ffffff" fill-opacity="1"><g transform="translate(135.58939, 233.401038)"><g><path d="M 62.75 -42.171875 L 52.390625 0 L 37.984375 0 L 32.171875 -25.84375 L 26.25 0 L 11.84375 0 L 1.609375 -42.171875 L 14.296875 -42.171875 L 19.203125 -13.34375 L 25.84375 -42.171875 L 38.703125 -42.171875 L 45.15625 -13.578125 L 50.0625 -42.171875 Z M 62.75 -42.171875 "/></g></g></g><g fill="#ffffff" fill-opacity="1"><g transform="translate(196.597576, 233.401038)"><g><path d="M 35.40625 -17.171875 C 35.40625 -16.253906 35.347656 -15.335938 35.234375 -14.421875 L 13.046875 -14.421875 C 13.160156 -12.578125 13.664062 -11.207031 14.5625 -10.3125 C 15.457031 -9.414062 16.601562 -8.96875 18 -8.96875 C 19.957031 -8.96875 21.351562 -9.847656 22.1875 -11.609375 L 34.6875 -11.609375 C 34.164062 -9.296875 33.15625 -7.226562 31.65625 -5.40625 C 30.164062 -3.59375 28.285156 -2.164062 26.015625 -1.125 C 23.742188 -0.09375 21.234375 0.421875 18.484375 0.421875 C 15.171875 0.421875 12.226562 -0.273438 9.65625 -1.671875 C 7.082031 -3.066406 5.066406 -5.0625 3.609375 -7.65625 C 2.160156 -10.25 1.4375 -13.300781 1.4375 -16.8125 C 1.4375 -20.320312 2.148438 -23.359375 3.578125 -25.921875 C 5.015625 -28.492188 7.019531 -30.476562 9.59375 -31.875 C 12.164062 -33.269531 15.128906 -33.96875 18.484375 -33.96875 C 21.796875 -33.96875 24.726562 -33.289062 27.28125 -31.9375 C 29.832031 -30.582031 31.820312 -28.640625 33.25 -26.109375 C 34.6875 -23.578125 35.40625 -20.597656 35.40625 -17.171875 Z M 23.453125 -20.09375 C 23.453125 -21.53125 22.972656 -22.65625 22.015625 -23.46875 C 21.054688 -24.289062 19.859375 -24.703125 18.421875 -24.703125 C 16.984375 -24.703125 15.804688 -24.3125 14.890625 -23.53125 C 13.972656 -22.757812 13.375 -21.613281 13.09375 -20.09375 Z M 23.453125 -20.09375 "/></g></g></g><g fill="#ffffff" fill-opacity="1"><g transform="translate(230.091993, 233.401038)"><g><path d="M 15.078125 -28.890625 C 15.992188 -30.484375 17.285156 -31.726562 18.953125 -32.625 C 20.628906 -33.519531 22.601562 -33.96875 24.875 -33.96875 C 27.550781 -33.96875 29.972656 -33.269531 32.140625 -31.875 C 34.316406 -30.476562 36.03125 -28.484375 37.28125 -25.890625 C 38.539062 -23.304688 39.171875 -20.28125 39.171875 -16.8125 C 39.171875 -13.34375 38.539062 -10.300781 37.28125 -7.6875 C 36.03125 -5.070312 34.316406 -3.066406 32.140625 -1.671875 C 29.972656 -0.273438 27.550781 0.421875 24.875 0.421875 C 22.601562 0.421875 20.628906 -0.0234375 18.953125 -0.921875 C 17.285156 -1.816406 15.992188 -3.066406 15.078125 -4.671875 L 15.078125 0 L 3.34375 0 L 3.34375 -44.265625 L 15.078125 -44.265625 Z M 27.28125 -16.8125 C 27.28125 -19 26.691406 -20.703125 25.515625 -21.921875 C 24.335938 -23.140625 22.890625 -23.75 21.171875 -23.75 C 19.460938 -23.75 18.019531 -23.128906 16.84375 -21.890625 C 15.664062 -20.648438 15.078125 -18.957031 15.078125 -16.8125 C 15.078125 -14.613281 15.664062 -12.894531 16.84375 -11.65625 C 18.019531 -10.425781 19.460938 -9.8125 21.171875 -9.8125 C 22.890625 -9.8125 24.335938 -10.4375 25.515625 -11.6875 C 26.691406 -12.945312 27.28125 -14.65625 27.28125 -16.8125 Z M 27.28125 -16.8125 "/></g></g></g><g clip-path="url(#43139d021e)"><g clip-path="url(#89556ae37f)"><g clip-path="url(#0d7c27321f)"><g clip-path="url(#cec94b26b3)"><path fill="#ffffff" d="M 103.886719 250.945312 L 129.242188 191.699219 L 67.167969 206.484375 L 86.144531 219.714844 L 86.207031 219.789062 L 64.511719 237.691406 L 72.726562 247.644531 L 94.519531 229.660156 L 94.570312 229.722656 L 103.886719 250.945312 " fill-opacity="1" fill-rule="nonzero"/></g></g></g></g></svg>